<?xml version="1.0" encoding="UTF-8" standalone="no"?> <svg width="64" height="64" viewBox="0 0 64 64" fill="none" xmlns="http://www.w3.org/2000/svg">
<path d="M40 46C41.1046 46 42 45.1046 42 44C42 42.8954 41.1046 42 40 42C38.8954 42 38 42.8954 38 44C38 45.1046 38.8954 46 40 46Z" fill="#BDDBFF"/>
<path d="M21 42C22.1046 42 23 41.1046 23 40C23 38.8954 22.1046 38 21 38C19.8954 38 19 38.8954 19 40C19 41.1046 19.8954 42 21 42Z" fill="#BDDBFF"/>
<path d="M32 55C33.1046 55 34 54.1046 34 53C34 51.8954 33.1046 51 32 51C30.8954 51 30 51.8954 30 53C30 54.1046 30.8954 55 32 55Z" fill="#BDDBFF"/>
<path d="M44 13V29H28V13H44ZM40 22V17H32V25H37L40 22Z" fill="#BDDBFF"/>
<path d="M60.919 24.955C60.4144 18.9845 57.788 13.3922 53.5155 9.19126C49.243 4.99034 43.6072 2.4587 37.629 2.055C34.2129 1.82036 30.7852 2.29568 27.5618 3.45103C24.3384 4.60637 21.3892 6.41671 18.9 8.768C16.4588 11.064 14.5021 13.8256 13.1452 16.8899C11.7884 19.9542 11.059 23.2592 11 26.61L2.78 35.655C2.51941 35.9418 2.34774 36.2981 2.28586 36.6806C2.22398 37.0631 2.27455 37.4554 2.43142 37.8097C2.5883 38.164 2.84472 38.4651 3.16952 38.6764C3.49432 38.8878 3.87351 39.0002 4.261 39H9V45C9.00212 46.8559 9.7403 48.6351 11.0526 49.9474C12.3649 51.2597 14.1441 51.9979 16 52H24V61C24 61.2652 24.1054 61.5196 24.2929 61.7071C24.4804 61.8946 24.7348 62 25 62H53C53.2652 62 53.5196 61.8946 53.7071 61.7071C53.8946 61.5196 54 61.2652 54 61V44.348C56.462 41.7906 58.3521 38.739 59.545 35.3956C60.7378 32.0521 61.2062 28.4932 60.919 24.955V24.955ZM52.292 43.233C52.1051 43.4204 52.0001 43.6743 52 43.939V60H26V52C26 51.4696 25.7893 50.9609 25.4142 50.5858C25.0391 50.2107 24.5304 50 24 50H16C14.6744 49.9984 13.4036 49.4711 12.4662 48.5338C11.5289 47.5964 11.0016 46.3256 11 45V38C11 37.7348 10.8946 37.4804 10.7071 37.2929C10.5196 37.1054 10.2652 37 10 37H4.26L12.74 27.673C12.9074 27.4888 13.0001 27.2489 13 27C12.9999 23.8532 13.6455 20.7398 14.8969 17.8525C16.1483 14.9652 17.9789 12.3654 20.2755 10.214C22.572 8.06254 25.2856 6.40527 28.2483 5.34469C31.211 4.2841 34.3599 3.84277 37.5 4.048C41.908 4.33662 46.1397 5.88853 49.6891 8.51822C53.2386 11.1479 55.9556 14.7441 57.5155 18.877C59.0755 23.0099 59.4122 27.5045 58.4855 31.8237C57.5589 36.1428 55.408 40.1038 52.29 43.233H52.292Z" fill="#3D9AE2"/>
<path d="M44 12H28C27.7348 12 27.4804 12.1054 27.2929 12.2929C27.1054 12.4804 27 12.7348 27 13V29C27 29.2652 27.1054 29.5196 27.2929 29.7071C27.4804 29.8946 27.7348 30 28 30H44C44.2652 30 44.5196 29.8946 44.7071 29.7071C44.8946 29.5196 45 29.2652 45 29V13C45 12.7348 44.8946 12.4804 44.7071 12.2929C44.5196 12.1054 44.2652 12 44 12ZM43 28H29V14H43V28Z" fill="#3D9AE2"/>
<path d="M32 26H37C37.2652 25.9999 37.5195 25.8946 37.707 25.707L40.707 22.707C40.8946 22.5195 40.9999 22.2652 41 22V17C41 16.7348 40.8946 16.4804 40.7071 16.2929C40.5196 16.1054 40.2652 16 40 16H32C31.7348 16 31.4804 16.1054 31.2929 16.2929C31.1054 16.4804 31 16.7348 31 17V25C31 25.2652 31.1054 25.5196 31.2929 25.7071C31.4804 25.8946 31.7348 26 32 26ZM33 18H39V21.586L36.589 24H33V18Z" fill="#3D9AE2"/>
<path d="M37 32H35V34H37V32Z" fill="#3D9AE2"/>
<path d="M41 32H39V34H41V32Z" fill="#3D9AE2"/>
<path d="M33 32H31V34H33V32Z" fill="#3D9AE2"/>
<path d="M25 24H23V26H25V24Z" fill="#3D9AE2"/>
<path d="M25 20H23V22H25V20Z" fill="#3D9AE2"/>
<path d="M25 16H23V18H25V16Z" fill="#3D9AE2"/>
<path d="M49 24H47V26H49V24Z" fill="#3D9AE2"/>
<path d="M49 20H47V22H49V20Z" fill="#3D9AE2"/>
<path d="M49 16H47V18H49V16Z" fill="#3D9AE2"/>
<path d="M37 8H35V10H37V8Z" fill="#3D9AE2"/>
<path d="M41 8H39V10H41V8Z" fill="#3D9AE2"/>
<path d="M33 8H31V10H33V8Z" fill="#3D9AE2"/>
<path d="M41 41.184V36H39V41.184C38.3328 41.4199 37.7705 41.8841 37.4124 42.4945C37.0543 43.1049 36.9235 43.8222 37.0432 44.5197C37.1629 45.2172 37.5253 45.85 38.0663 46.3061C38.6074 46.7622 39.2923 47.0124 40 47.0124C40.7077 47.0124 41.3926 46.7622 41.9337 46.3061C42.4747 45.85 42.8371 45.2172 42.9568 44.5197C43.0765 43.8222 42.9457 43.1049 42.5876 42.4945C42.2296 41.8841 41.6672 41.4199 41 41.184V41.184ZM40 45C39.8022 45 39.6089 44.9414 39.4444 44.8315C39.28 44.7216 39.1518 44.5654 39.0761 44.3827C39.0004 44.2 38.9806 43.9989 39.0192 43.8049C39.0578 43.6109 39.153 43.4327 39.2929 43.2929C39.4328 43.153 39.6109 43.0578 39.8049 43.0192C39.9989 42.9806 40.2 43.0004 40.3827 43.0761C40.5654 43.1518 40.7216 43.28 40.8315 43.4444C40.9414 43.6089 41 43.8022 41 44C41 44.2652 40.8946 44.5196 40.7071 44.7071C40.5196 44.8946 40.2652 45 40 45Z" fill="#3D9AE2"/>
<path d="M37 36H35V39H33V36H31V39H26V41H31V48H33V41H36C36.2652 41 36.5196 40.8946 36.7071 40.7071C36.8946 40.5196 37 40.2652 37 40V36Z" fill="#3D9AE2"/>
<path d="M21 37C20.4067 37 19.8266 37.1759 19.3333 37.5056C18.8399 37.8352 18.4554 38.3038 18.2284 38.852C18.0013 39.4001 17.9419 40.0033 18.0576 40.5853C18.1734 41.1672 18.4591 41.7018 18.8787 42.1213C19.2982 42.5409 19.8328 42.8266 20.4147 42.9424C20.9967 43.0581 21.5999 42.9987 22.1481 42.7716C22.6962 42.5446 23.1648 42.1601 23.4944 41.6667C23.8241 41.1734 24 40.5933 24 40C24 39.2044 23.6839 38.4413 23.1213 37.8787C22.5587 37.3161 21.7957 37 21 37ZM21 41C20.8022 41 20.6089 40.9414 20.4444 40.8315C20.28 40.7216 20.1518 40.5654 20.0761 40.3827C20.0004 40.2 19.9806 39.9989 20.0192 39.8049C20.0578 39.6109 20.153 39.4327 20.2929 39.2929C20.4327 39.153 20.6109 39.0578 20.8049 39.0192C20.9989 38.9806 21.2 39.0004 21.3827 39.0761C21.5654 39.1518 21.7216 39.28 21.8315 39.4444C21.9414 39.6089 22 39.8022 22 40C22 40.2652 21.8946 40.5196 21.7071 40.7071C21.5196 40.8946 21.2652 41 21 41Z" fill="#3D9AE2"/>
<path d="M32 50C31.4067 50 30.8266 50.1759 30.3333 50.5056C29.8399 50.8352 29.4554 51.3038 29.2284 51.852C29.0013 52.4001 28.9419 53.0033 29.0576 53.5853C29.1734 54.1672 29.4591 54.7018 29.8787 55.1213C30.2982 55.5409 30.8328 55.8266 31.4147 55.9424C31.9967 56.0581 32.5999 55.9987 33.148 55.7716C33.6962 55.5446 34.1648 55.1601 34.4944 54.6667C34.8241 54.1734 35 53.5933 35 53C35 52.2044 34.6839 51.4413 34.1213 50.8787C33.5587 50.3161 32.7957 50 32 50V50ZM32 54C31.8022 54 31.6089 53.9414 31.4444 53.8315C31.28 53.7216 31.1518 53.5654 31.0761 53.3827C31.0004 53.2 30.9806 52.9989 31.0192 52.8049C31.0578 52.6109 31.153 52.4327 31.2929 52.2929C31.4327 52.153 31.6109 52.0578 31.8049 52.0192C31.9989 51.9806 32.2 52.0004 32.3827 52.0761C32.5654 52.1518 32.7216 52.28 32.8315 52.4444C32.9414 52.6089 33 52.8022 33 53C33 53.2652 32.8946 53.5196 32.7071 53.7071C32.5196 53.8946 32.2652 54 32 54Z" fill="#3D9AE2"/>
</svg>
